<?xml version="1.0" encoding="utf-8"?>
<!-- Generator: Adobe Illustrator 29.7.1, SVG Export Plug-In . SVG Version: 9.03 Build 0)  -->
<svg version="1.0" id="Layer_1" xmlns="http://www.w3.org/2000/svg" xmlns:xlink="http://www.w3.org/1999/xlink" x="0px" y="0px"
	 viewBox="0 0 792 612" style="enable-background:new 0 0 792 612;" xml:space="preserve">
<style type="text/css">
	.cls-1{fill:#FACE0B;}
</style>
<g>
	<g>
		<g>
			<path class="cls-1" d="M0.33,34.97h101.6l41.1,154.68l41.67-154.68h101.03v254h-68.49V105.17l-49.66,183.79h-49.09L68.82,105.17
				v183.79H0.33V34.97z"/>
			<path class="cls-1" d="M323.96,211.34h69.64c4,17.69,19.41,28.54,47.37,28.54c16.55,0,36.53-5.14,36.53-22.26
				c0-14.84-14.27-18.83-30.82-21.69l-43.38-7.99c-45.66-7.99-71.92-32.53-71.92-75.91c0-51.37,46.8-81.05,107.88-81.05
				c66.21,0,103.88,33.1,105.02,79.91h-67.92c-2.28-19.41-15.98-27.4-39.38-27.4c-25.11,0-34.25,10.84-34.25,21.12
				s6.85,18.27,28.54,21.69l37.67,6.28c53.08,8.56,76.48,36.53,76.48,77.06c0,49.66-46.8,81.62-109.02,81.62
				C384.46,292.39,328.53,266.13,323.96,211.34L323.96,211.34z"/>
			<path class="cls-1" d="M582.52,34.97h101.6c70.78,0,101.6,23.97,101.6,66.78c0,23.4-9.7,40.52-41.1,55.94
				c44.52,13.13,46.8,42.24,46.8,61.64c0,47.37-28.54,69.06-102.17,69.06H581.95V34.97H582.52z M693.83,133.71
				c15.98,0,26.26-9.7,26.26-23.4c0-14.84-12.56-24.54-28.54-24.54h-40.52v47.95H693.83L693.83,133.71z M692.11,237.59
				c19.98,0,30.25-13.13,30.25-26.26c0-14.27-11.42-24.54-28.54-24.54h-42.81v50.8L692.11,237.59L692.11,237.59z"/>
		</g>
		<rect x="-0.57" y="340.81" class="cls-1" width="790.86" height="34.25"/>
		<g>
			<path class="cls-1" d="M53.83,428.02L0.8,568.25h42.06l10.88-29.19h38.44l10.88,29.19h41.49L91.51,428.02H53.83z M81.01,503H64.9
				l8.05-22.88L81.01,503z"/>
			<polygon class="cls-1" points="190.48,427.44 149.28,427.44 149.28,568.25 248.29,568.25 248.29,532.77 190.48,532.77 			"/>
			<path class="cls-1" d="M305.47,428.02l-53.03,140.23h42.06l10.88-29.19h38.44l10.88,29.19h41.49l-53.03-140.23H305.47z M332.64,503
				h-16.1l8.05-22.88L332.64,503z"/>
			<path class="cls-1" d="M466.94,479.57L443.5,475c-12.15-2.53-12.15-6.07-12.15-7.77c0-5.12,6.25-8.3,16.32-8.3
				c12,0,18.61,4.17,18.61,11.74l0.81,6.58h40.4l0-7.2c-0.32-12.17-5.52-23.3-14.63-31.35c-10.43-9.22-25.66-14.1-44.04-14.1
				c-34.88,0-59.24,18.48-59.24,44.93c0,15.54,7.03,35.45,40.52,42.03l25.18,5.15c13.29,2.77,13.29,6.26,13.29,8.34
				c0,5.92-9.17,9.45-18.04,9.45c-9.28,0-20.84-2.21-23.24-12.75l-1.59-5.56h-40.93l0.8,7.96c3.59,30.48,34.06,44.12,62.66,44.12
				c35.89,0,60.96-18.71,60.96-45.58C508.33,499.23,494.11,484.73,466.94,479.57z"/>
			<polygon class="cls-1" points="643.01,427.44 593.73,427.44 555.45,473.17 555.45,427.44 513.67,427.44 513.67,568.25 
				555.45,568.25 555.45,527.52 567.44,514.09 599.83,568.25 645.09,568.25 595.96,484.03 			"/>
			<path class="cls-1" d="M739.85,429.32l-0.49-1.3h-38.26l-53.03,140.23h42.06l10.88-29.19h38.43l10.88,29.19h41.48L739.85,429.32z
				 M727.71,503h-16.1l8.05-22.88L727.71,503z"/>
		</g>
	</g>
</g>
</svg>
