<?xml version="1.0" encoding="UTF-8"?>
<svg id="Layer_1" xmlns="http://www.w3.org/2000/svg" version="1.1" viewBox="0 0 576 528">
  <!-- Generator: Adobe Illustrator 30.3.0, SVG Export Plug-In . SVG Version: 2.1.3 Build 182)  -->
  <defs>
    <style>
      .st0 {
        stroke: #fff;
        stroke-miterlimit: 10;
        stroke-width: .5px;
      }

      .st0, .st1, .st2 {
        isolation: isolate;
      }

      .st0, .st2 {
        font-family: PublicSans-Bold, 'Public Sans';
        font-size: 13.33px;
        font-weight: 700;
      }

      .st0, .st3, .st4 {
        fill: none;
      }

      .st5 {
        fill: #e1e1e1;
        fill-rule: evenodd;
      }

      .st5, .st3, .st4, .st6 {
        stroke-linecap: round;
        stroke-linejoin: round;
      }

      .st5, .st6 {
        stroke: #005ce6;
        stroke-width: 2px;
      }

      .st3 {
        stroke: #fa0;
      }

      .st3, .st4 {
        stroke-width: 1.33px;
      }

      .st4 {
        stroke: #000;
      }

      .st6 {
        fill: #6faf3e;
      }
    </style>
  </defs>
  <g id="Mapped">
    <path id="cy" class="st6" d="M255.28,232.23h-.84v-29.05h29.09v29.04h-28.29.04Z"/>
    <path id="ty" class="st6" d="M527.66,242.92c-.15-3.21-.29-6.47-.44-9.68-.41.03-.91.06-1.33.08-.22-4.83-.44-9.69-.66-14.52,9.69-.6,19.39-1.22,29.08-1.79.28,4.83.56,9.68.84,14.51.3-.01.7-.04,1-.06.28,4.83.56,9.69.84,14.52-9.59.59-19.19,1.18-28.78,1.78-.07-1.59-.15-3.25-.22-4.84h-.33Z"/>
    <path id="ch" class="st6" d="M284.17,256.6v4.84h-28.84v-29.05h28.79v24.2h.05Z"/>
    <path id="ll" class="st6" d="M558.3,272.99c.04.75.1,1.67.14,2.42-9.57.59-19.15,1.19-28.72,1.8-.44-9.68-.88-19.36-1.32-29.04,9.59-.59,19.19-1.21,28.78-1.77.51,8.87,1.02,17.75,1.54,26.61l-.42-.02Z"/>
    <path id="sl" class="st6" d="M140.96,347.25c-.7,0-1.43-.05-2.13-.06.27-9.68.58-19.37.83-29.05,9.78.26,19.56.57,29.35.67-.15,9.68-.41,19.37-.58,29.05-9.16-.06-18.32-.43-27.47-.61Z"/>
    <path id="sm" class="st6" d="M473.07,350.23c-.07-1.59-.15-3.25-.22-4.84-9.22.31-18.44.62-27.65.91-.29-9.67-.64-19.36-.95-29.03,19.49-.61,38.99-1.22,58.46-2.16l.21-.2c.43,9.68.9,19.37,1.31,29.04l-.21.19c-.55.02-1.17.04-1.72.08.42,9.68.9,19.36,1.31,29.04-9.66.38-19.32.93-28.99,1.21-.37-8.06-.73-16.14-1.1-24.2l-.45-.04Z"/>
    <path id="sk" class="st6" d="M169.82,347.93c-.58,0-1.22-.01-1.8-.03.19-9.68.39-19.36.6-29.04,9.78.16,19.56.33,29.34.39-.15,9.68-.31,19.36-.48,29.04-9.22-.01-18.46-.34-27.66-.36Z"/>
    <path id="bl" class="st6" d="M198.68,348.45h-1.47c.14-9.68.33-19.37.47-29.05,9.78.02,19.56,0,29.34.01-.06,9.68-.17,19.36-.23,29.04-9.37.07-18.75-.12-28.11,0Z"/>
    <path id="cn" class="st6" d="M386.77,369.8c-.14-7.25-.29-14.53-.45-21.78,9.67-.11,19.34-.46,29.01-.71.27,9.67.58,19.36.83,29.03-9.66.27-19.32.58-28.99.69,0-2.4-.11-4.85-.13-7.25,0,0-.26.02-.27.02Z"/>
    <path id="ar" class="st6" d="M415.76,369.11c-.2-7.25-.42-14.53-.63-21.78,9.65-.28,19.3-.54,28.95-.88.27,9.68.58,19.36.83,29.04-9.66.29-19.33.63-28.99.88-.07-2.4-.13-4.85-.21-7.25h.05Z"/>
    <path id="mg" class="st6" d="M444.74,368.26c-.22-7.25-.43-14.53-.65-21.78,9.65-.3,19.31-.61,28.96-.96.44,9.68.88,19.36,1.32,29.04-9.67.3-19.33.66-29,.94-.06-2.4-.15-4.85-.23-7.25h-.4Z"/>
    <path id="dh" class="st6" d="M485.99,118.2c.18,4.02.37,8.08.55,12.1-19.18.88-38.4,1.32-57.6,2.03-.55-19.36-1.14-38.72-1.67-58.08,19.18-.56,38.37-1.21,57.53-2.01.7,15.32,1.39,30.65,2.09,45.97h-.9Z"/>
    <path id="sh" class="st6" d="M226.75,314.74c-.01,1.59-.02,3.25-.04,4.84-9.78,0-19.56.01-29.34-.01.15-9.68.31-19.37.48-29.04,9.51.06,19.03.08,28.54.07-.04,8.06-.14,16.14-.19,24.2h0l.55-.06Z"/>
    <path id="by" class="st6" d="M283.59,198.22v4.84h-29.09v-29.05h29.01v24.2h.08Z"/>
    <path id="tk" class="st6" d="M196.14,226.76c.28-17.74.57-35.5.88-53.24,19.36.19,38.72.08,58.08.11v58.08c-19.42-.01-38.84.05-58.25-.08.02-1.59.04-3.25.08-4.84l-.79-.03Z"/>
    <path id="tl" class="st6" d="M139.42,405.63c.55-19.36,1.14-38.72,1.67-58.08,28.94.84,57.91,1.2,86.87,1.12-.12,14.52-.24,29.04-.36,43.56h-14.54c-.05,4.83-.11,9.69-.18,14.52-13.99-.01-27.98-.19-41.97-.47-.06,4.83-.21,9.68-.28,14.51-9.61-.13-19.21-.4-28.81-.69.13-4.84.3-9.69.41-14.53-.67.01-1.4-.05-2.07-.04h0s-.74.1-.74.1Z"/>
    <path id="be" class="st6" d="M191.29,450.53c-7.2-.09-14.41-.21-21.61-.34.27-14.52.6-29.05.89-43.57,14.42.27,28.84.47,43.26.47-.23,19.36-.47,38.72-.72,58.08h1.28c-.05,4.83-.12,9.69-.18,14.52-4.86.01-9.73-.04-14.59-.03.07-4.83.15-9.69.24-14.52-.45,0-.99,0-1.44-.01.07-4.83.15-9.69.24-14.52-2.45-.02-4.92-.02-7.37-.08Z"/>
    <path id="yo" class="st6" d="M197.75,314.37c-.02,1.59-.05,3.25-.08,4.84-9.78-.06-19.56-.22-29.34-.39.19-9.68.39-19.36.6-29.04,9.53.16,19.06.37,28.59.42-.09,8.07-.28,16.14-.38,24.21h0l.61-.04Z"/>
    <path id="ya" class="st6" d="M168.75,313.84c-.02,1.59-.05,3.25-.1,4.84-9.78-.12-19.57-.37-29.34-.69.27-9.68.58-19.36.83-29.04,9.51.27,19.03.54,28.55.66-.15,8.06-.32,16.14-.5,24.2h0l.56.03Z"/>
    <path id="mp" class="st6" d="M139.04,339.9c-.06,2.4-.14,4.86-.21,7.26-19.55-.53-39.1-1.19-58.65-1.84.88-19.36,1.76-38.72,2.64-58.08,19.05.65,38.11,1.23,57.16,1.87-.48,16.94-.97,33.88-1.47,50.82h0l.53-.03Z"/>
    <path id="cl" class="st6" d="M138.4,283.9c.5-17.74,1.04-35.5,1.53-53.24,19.18.54,38.37.96,57.56,1.12-.27,19.36-.65,38.73-.94,58.09-19.27-.22-38.54-.52-57.79-1.15.04-1.59.11-3.26.13-4.85h0l-.5.03Z"/>
    <path id="cu" class="st6" d="M313.08,244.32v2.42h-28.8v-14.52h-.5v-14.52h29.08c.16,4.94-.32,10.06.18,14.93,0,3.89,0,7.8,0,11.69h.04Z"/>
    <path id="go" class="st6" d="M312.71,215.13v2.42h-29.08v-29.04h29.04v26.62h.04Z"/>
    <path id="cv" class="st6" d="M312.5,185.93v2.42h-29.04v-14.52h-.51v-9.83h29.39c-.07,7.34.27,14.6.17,21.93h-.01Z"/>
    <path id="pc" class="st6" d="M313.03,237.02c-.35-16.07-.12-32.27-.18-48.4,19.36-.06,38.73.16,58.08-.19.29,14.52.59,29.04.89,43.56h-.5c.09,4.83.17,9.69.26,14.52-19.19.32-38.4.11-57.6.17v-9.68l-.95.02Z"/>
    <path id="fl" class="st6" d="M428.49,232.44c.11,4.02.25,8.08.34,12.1-19.19.66-38.39,1.16-57.59,1.39-.04-4.83-.18-9.69-.25-14.52h.49c-.26-14.52-.6-29.05-.87-43.57,19.36-.21,38.71-.73,58.06-1.41.41,14.52.86,29.04,1.25,43.56-.36-.01-.8.02-1.16.02.02.76.06,1.67.06,2.43h.01-.34Z"/>
    <path id="dc" class="st6" d="M355.81,180.57c.03,2.4.07,4.86.12,7.26-14.52,0-29.04.02-43.56,0,.1-8.14-.21-16.21-.17-24.35h-.58v-14.52h44.41c.07,4.83.15,9.69.24,14.52h.23c.03,3.26.11,6.57.15,9.83h-.33c.03,2.4.07,4.86.12,7.26h-.63Z"/>
    <path id="ss" class="st6" d="M427.89,174.04c0-.75-.06-1.67-.07-2.42.38,0,.83-.02,1.2-.04-.08-3.26-.19-6.57-.29-9.83h.35c-.27-9.68-.58-19.37-.83-29.05,19.19-.65,38.4-1.15,57.58-2.01.44,9.67.88,19.36,1.32,29.03-.24-.01-.58.04-.82.03.14,3.27.29,6.57.44,9.84-.61.01-1.27.05-1.88.09.22,4.83.44,9.69.66,14.52-19.34.79-38.71,1.34-58.07,1.98-.11-4.02-.23-8.07-.35-12.09h0l.76-.05Z"/>
    <path id="mr" class="st6" d="M552.18,180.7c.13,2.4.28,4.86.42,7.26-17.3,1.07-34.6,2.2-51.9,2.99-.11-2.4-.22-4.86-.33-7.26l-.27.19c-4.74.22-9.49.45-14.24.68-.22-4.83-.44-9.69-.66-14.52.61-.01,1.27-.05,1.88-.09-.15-3.26-.3-6.57-.44-9.83.24,0,.58-.03.82-.02-.44-9.68-.88-19.37-1.32-29.05,19.21-.88,38.41-1.95,57.6-3.32.56,9.68,1.12,19.36,1.68,29.04,1.13-.06,2.28-.17,3.41-.2.33,5.62.65,11.27.98,16.89.3-.01.72-.04,1.02-.06.13,2.4.28,4.86.42,7.26h0l.93.04Z"/>
    <path id="lm" class="st6" d="M311.35,127.4v7.26h-28.96v-29.04h14.39v-14.52h14.39v36.3h.18Z"/>
    <path id="hu" class="st6" d="M311.6,163.9h-29.62v-29.04h28.96v29.04h.66Z"/>
    <path id="co" class="st6" d="M340.75,146.58c0,.75,0,1.67.03,2.42h-29.6v-29.04h28.72c.1,8.87.21,17.75.33,26.62h.52Z"/>
    <path id="bp" class="st6" d="M354.96,119.61h-43.08v-29.04c14.39,0,28.78,0,43.17-.01.12,9.68.33,19.36.46,29.04h.01-.56Z"/>
    <path id="ko" class="st6" d="M256.39,353.88v9.68h-29.04c.03-4.83.07-9.69.12-14.52h-1.14c.06-9.68.16-19.37.23-29.05h29.34v29.04h.81v4.84h-.32Z"/>
    <path id="dk" class="st6" d="M227.15,390.17c.07-8.87.14-17.75.22-26.62h29.04v29.04h-29.08c0-.75,0-1.67.02-2.42h-.2Z"/>
    <path id="in" class="st6" d="M328.82,373.13c-.06-8.06-.13-16.14-.2-24.2,9.67,0,19.34-.03,29.01-.02.15,9.69.31,19.38.47,29.07-9.66.14-19.33.09-29,.1,0-1.59-.02-3.25-.04-4.84l-.24-.11Z"/>
    <path id="su" class="st6" d="M357.79,370.33c-.11-7.25-.23-14.53-.36-21.78,9.65-.07,19.31-.27,28.96-.38.17,9.68.4,19.36.59,29.04-9.66.15-19.33.27-28.99.37,0-2.41-.09-4.87-.1-7.28l-.1.03Z"/>
    <path id="gs" class="st6" d="M328.82,373.13c.01,1.59.02,3.25.04,4.84h-14.5c-.16-9.65.31-19.44-.17-29.04h14.64c.04,8.06.14,16.14.19,24.2h-.2Z"/>
    <path id="wa" class="st6" d="M314.52,404.9c0-8.89-.02-17.8-.02-26.69h29c.1,9.68.24,19.36.34,29.04h-29.25c0-.75.01-1.67-.01-2.42h0l-.06.07Z"/>
    <path id="pa" class="st6" d="M372.94,406.57c-9.69.14-19.39.35-29.08.3-.08-9.68-.23-19.36-.34-29.04,9.67.03,19.33-.18,29-.27.15,9.68.31,19.37.48,29.04l-.06-.03Z"/>
    <path id="gc" class="st6" d="M355.82,421.46c-8.79.06-17.59.05-26.38.05-.03-4.83-.05-9.69-.14-14.52,9.64-.06,19.3.11,28.94-.1.07,4.84.15,9.7.24,14.53-.87.03-1.79-.03-2.66.04Z"/>
    <path id="kg" class="st6" d="M387.15,418.46c0,.75.03,1.67.05,2.42-9.6.18-19.2.36-28.8.45-.07-4.83-.15-9.7-.24-14.53,9.57-.07,19.15-.29,28.72-.44.06,4.02.17,8.07.24,12.09,0,0,.02,0,.03,0Z"/>
    <path id="fh" class="st6" d="M212.96,465.44c.24-19.36.48-38.72.72-58.08h-1.28c.05-4.83.12-9.69.18-14.52h43.62v14.52h15.23c-.03,19.38,0,38.77-.01,58.15h-28.56v14.52h-29.18c.05-4.83.11-9.69.18-14.52h-1.28l.38-.07Z"/>
    <path id="pm" class="st6" d="M298.42,465.79h-27.3v-29.06h28.86v29.04h-2.14l.58.02Z"/>
    <path id="oc" class="st6" d="M314.86,426.77v9.68h-14.38c0-9.68-.01-19.36-.02-29.04h28.74c.11,4.83.1,9.69.16,14.52h-14.4v4.84h-.1Z"/>
    <path id="ta" class="st6" d="M255.85,290.62h-.82c0-9.68,0-19.36,0-29.04h28.82v29.04h-28.27.26Z"/>
    <path id="ka" class="st6" d="M328.56,346.37c0,.75,0,1.67.02,2.42h-43.98v-43.66h43.88c.09,13.71.23,27.43.33,41.14l-.25.1Z"/>
    <path id="wc" class="st6" d="M285.32,373.38v-24.26h28.85c.48,9.6,0,19.39.17,29.04h-29v-4.84h0l-.02.06Z"/>
    <path id="ho" class="st6" d="M312.27,407.35h-26.79v-29.18h29c.03,9.7.03,19.41.05,29.11h-2.26v.07Z"/>
    <path id="ba" class="st6" d="M284.72,295.56v-4.9h-.5v-43.56h57.6c.27,19.37.43,38.73.55,58.09h-58.52v-9.67h0l.87.04Z"/>
    <path id="mo" class="st6" d="M284.75,314.99v4.84h-29.22v-29.05h28.76v24.25h0l.46-.04Z"/>
    <path id="mc" class="st6" d="M255.74,314.95v4.84h-29.34c.07-9.68.15-19.36.24-29.04h28.59v24.2h.51Z"/>
    <path id="ca" class="st6" d="M256.41,349.01h-.82v-29.04h29.21v29.12h-28.43l.04-.08Z"/>
    <path id="wi" class="st6" d="M285.32,373.38v4.84h-29v-29.05h28.92v24.25h0l.08-.04Z"/>
    <path id="ls" class="st6" d="M256.98,407.4h-.8v-29.04h29v29.18c-9.43,0-18.88-.01-28.31-.01h0l.11-.13Z"/>
    <path id="pv" class="st6" d="M196.72,285.16c.28-17.74.57-35.5.88-53.24,19.19.16,38.39.09,57.59.1,0,19.36,0,38.72,0,58.08-19.26,0-38.52.04-57.78-.07.02-1.59.04-3.25.08-4.84l-.76-.03Z"/>
  </g>
  <g id="Outside">
    <path class="st5" d="M485.78,113.34c-.62-13.71-1.25-27.43-1.87-41.14,19.19-.81,38.35-1.78,57.51-3.07,1.12,19.36,2.24,38.72,3.36,58.08-19.18,1.39-38.39,2.39-57.6,3.32-.26-5.64-.51-11.3-.77-16.94l-.63-.25Z"/>
    <path class="st5" d="M357.66,341.13c.03,2.4.07,4.86.12,7.26-9.78-.01-19.56.03-29.34.02-.09-14.52-.24-29.04-.35-43.56h29.27c.18,12.1.41,24.2.59,36.3l-.29-.02Z"/>
    <path class="st5" d="M357.7,343.57c-.21-12.9-.42-25.82-.64-38.72,14.64-.14,29.28-.38,43.92-.66.41,14.52.86,29.04,1.25,43.56-14.65.34-29.31.54-43.97.71,0-1.59-.06-3.25-.06-4.84-.01,0-.49-.05-.5-.05Z"/>
    <path class="st5" d="M401.44,342.7c-.37-12.9-.74-25.82-1.12-38.72,14.64-.4,29.28-.88,43.92-1.35.45,14.52.98,29.04,1.42,43.56-14.63.48-29.27.89-43.9,1.3-.02-1.58-.09-3.25-.13-4.83l-.19.04Z"/>
    <path class="st5" d="M372.94,406.57c-.15-9.68-.31-19.36-.48-29.04,14.5-.18,29.01-.43,43.5-.91.27,9.68.58,19.36.83,29.04-.28,0-.67,0-.95.02.13,4.83.3,9.69.41,14.52-9.59.25-19.19.6-28.79.7-.06-4.83-.21-9.68-.28-14.51-4.74,0-9.52.32-14.24.18Z"/>
    <path class="st5" d="M459.23,409.16c.08,3.21.23,6.47.3,9.68-14.39.47-28.79.95-43.18,1.35-.14-4.83-.27-9.68-.42-14.51.29,0,.67-.03.96-.02-.27-9.68-.55-19.37-.84-29.05,14.5-.4,29-.91,43.5-1.37.29,9.68.66,19.36.94,29.04-.44,0-.99.03-1.43.05.03,1.59.12,3.25.14,4.84h.03Z"/>
    <path class="st5" d="M502.66,409.92c.1,2.34.22,4.74.32,7.08-14.3,1.19-28.81,1.28-43.19,1.85-.14-4.83-.31-9.68-.47-14.51.45-.02.99-.04,1.44-.04-.29-9.68-.64-19.37-.95-29.05,14.51-.43,29.01-.97,43.5-1.69.32,9.66,1.1,19.42,1.2,29.05-.58.01-1.22.05-1.8.08.11,2.4.21,4.86.33,7.26l-.38-.03Z"/>
    <path class="st5" d="M83.78,403.87c-.89-.01-1.82-.06-2.71-.08.77-19.36,1.57-38.73,2.48-58.09,19.34.63,38.67,1.26,58.01,1.81-.55,19.36-1.11,38.72-1.68,58.08.67,0,1.41.03,2.08.06-.13,4.83-.28,9.69-.42,14.52-19.2-.51-38.4-1.17-57.6-1.79.15-4.84.31-9.7.48-14.54l-.64.03Z"/>
    <path class="st5" d="M81.06,403.77c.89.02,1.82.07,2.71.08-.17,4.83-.33,9.7-.48,14.53-19.22-.67-38.4-1.53-57.6-2.62.22-4.83.44-9.69.66-14.52-1.11-.05-2.24-.15-3.35-.18.88-19.37,1.76-38.74,2.64-58.1,19.3,1.03,38.59,1.92,57.9,2.6-.81,19.36-1.67,38.73-2.42,58.09h0l-.06.12Z"/>
    <path class="st5" d="M80.85,335.58c-.15,3.21-.29,6.47-.44,9.68-14.65-.5-29.28-1.25-43.92-1.96.88-19.36,1.76-38.72,2.64-58.08,14.27.63,28.54,1.37,42.82,1.89-.73,16.13-1.47,32.27-2.2,48.4h0l1.1.07Z"/>
    <path class="st5" d="M138.46,281.47c-.06,2.4-.14,4.86-.21,7.26-19.27-.62-38.55-1.23-57.82-1.89.88-19.36,1.76-38.74,2.64-58.1,19.2.64,38.42,1.25,57.62,1.89-.48,16.94-.97,33.88-1.47,50.82l-.76.02Z"/>
    <path class="st5" d="M80.28,277.11c-.15,3.21-.29,6.47-.44,9.68-14.44-.57-28.87-1.26-43.3-2,.88-19.36,1.76-38.72,2.64-58.08,14.38.65,28.73,1.41,43.12,1.95-.73,16.13-1.47,32.27-2.2,48.4h0l.18.05Z"/>
    <path class="st5" d="M371.43,270.33c.02,1.59.04,3.25.08,4.84-9.6.18-19.21.16-28.82.15-.11-9.68-.23-19.36-.36-29.04,9.6,0,19.2.03,28.8-.17.14,8.06.28,16.14.42,24.2l-.12.02Z"/>
    <path class="st5" d="M371.48,299.53c.02,1.59.04,3.25.08,4.84-9.76.14-19.52.19-29.28.16-.19-9.69.03-19.36-.19-29.05,9.61,0,19.22.04,28.82-.15.07,4.83.15,9.69.24,14.52h-.5c.03,3.22.11,6.47.15,9.69h.68Z"/>
    <path class="st5" d="M429.08,290.85c.11,4.02.25,8.08.34,12.1-19.51.65-39.02,1.14-58.55,1.37-.04-4.83-.17-9.69-.22-14.52h.48c-.23-14.52-.48-29.04-.73-43.56,19.21-.24,38.41-.7,57.6-1.41.41,14.52.86,29.04,1.25,43.56-.35-.01-.78.02-1.13.02.02.76.06,1.67.06,2.43.01,0,.89.01.9.01Z"/>
    <path class="st5" d="M429.44,303.01c-.13-4.83-.28-9.69-.42-14.52.35,0,.79-.02,1.14-.04-.13-4.83-.28-9.69-.42-14.52,14.41-.47,28.82-.95,43.23-1.44.22,4.83.44,9.69.66,14.52-.52,0-1.11.03-1.63.06.44,9.68.88,19.36,1.32,29.04-9.78.31-19.56.63-29.34.96-.15-4.83-.32-9.69-.48-14.52-4.88.14-9.76.33-14.64.46h.58Z"/>
    <path class="st5" d="M429.36,261.62c-.3-10.48-.6-20.98-.91-31.46,14.4-.44,28.79-.9,43.18-1.46.66,14.52,1.32,29.04,1.98,43.56-14.41.47-28.82.95-43.23,1.44-.11-4.02-.23-8.08-.35-12.1l-.67.02Z"/>
    <path class="st5" d="M429.44,225.11c-.37-12.9-.74-25.82-1.12-38.72,14.52-.45,29.04-.95,43.56-1.43.66,14.52,1.32,29.04,1.98,43.56-14.56.53-29.12,1.06-43.68,1.46-.04-1.58-.09-3.25-.14-4.83l-.6-.04Z"/>
    <path class="st5" d="M196.14,226.76c-.02,1.59-.05,3.25-.08,4.84-19.41-.22-38.82-.57-58.21-1.21.55-19.36,1.14-38.72,1.67-58.08,19.36.63,38.74,1.02,58.12,1.25-.25,17.75-.6,35.5-.86,53.25-.01,0-.63-.05-.64-.05Z"/>
    <path class="st5" d="M370.01,146.11c0,.75.01,1.67.05,2.42-9.86.21-19.73.19-29.6.18-.11-9.68-.24-19.36-.36-29.04,9.57,0,19.15.05,28.72-.18.17,8.87.35,17.75.55,26.62h.64Z"/>
    <path class="st5" d="M399.27,145.47c0,.75.06,1.67.07,2.42-9.86.23-19.73.32-29.6.51-.19-9.68-.39-19.36-.6-29.04,9.57-.18,19.15-.27,28.72-.51.25,8.87.51,17.75.77,26.62h.64Z"/>
    <path class="st5" d="M399.15,179.7c.06,2.4.16,4.86.2,7.26-14.51.26-29.03.56-43.55.69-.07-4.83-.15-9.69-.24-14.52h.34c-.01-3.27-.12-6.57-.14-9.84h-.24c-.07-4.83-.15-9.69-.24-14.52,14.8-.11,29.6-.4,44.4-.69.29,8.12.35,16.24.57,24.36-.25,0-.6,0-.85,0,.06,2.4.16,4.86.2,7.26h-.45Z"/>
    <path class="st5" d="M428.08,130.07c0,.75.06,1.67.07,2.42-9.6.31-19.2.63-28.8.96-.27-9.68-.58-19.36-.83-29.04,9.58-.28,19.15-.63,28.73-.93.25,8.87.51,17.74.77,26.61h0l.06-.02Z"/>
    <path class="st5" d="M429.05,161.68c-9.87.31-19.75.64-29.63.91-.27-9.68-.58-19.36-.83-29.04,9.6-.27,19.19-.65,28.79-.94.28,9.67.55,19.36.84,29.03h0l.83.04Z"/>
    <path class="st5" d="M428.11,181.33c.04,1.59.11,3.25.13,4.84-9.67.27-19.35.65-29.02.91-.14-4.83-.27-9.68-.42-14.51.25,0,.6-.01.85,0,.03-3.27-.37-6.6-.15-9.85,9.76-.25,19.52-.57,29.28-.88.09,3.26.21,6.56.28,9.82-.37-.01-.81.02-1.18.02.08,3.22.2,6.47.27,9.69h.01l-.05-.03Z"/>
    <path class="st5" d="M502.2,219.76c.09,2.4.24,4.86.32,7.26l-.21.19c-9.63.43-19.25.9-28.88,1.19-.66-14.52-1.32-29.04-1.98-43.56,9.59-.27,19.17-.79,28.75-1.23l.27-.21c.55,12.1,1.1,24.2,1.65,36.3h0l.08.06Z"/>
    <path class="st5" d="M472.53,250.4c-.33-7.25-.66-14.53-.99-21.78,9.6-.29,19.18-.73,28.77-1.18.43,9.61.88,19.24,1.31,28.86l-.23.19c-9.5.41-19,.92-28.52,1.21-.11-2.4-.22-4.86-.33-7.26h0v-.04Z"/>
    <path class="st5" d="M503.1,285.49l-.1.19c-9.58.44-19.16.9-28.75,1.2-.44-9.68-.88-19.36-1.32-29.04,9.52-.26,19.02-.79,28.52-1.19l.23-.2c.43,9.68.9,19.37,1.31,29.04h.11Z"/>
    <path class="st5" d="M473.12,308.83c-.33-7.25-.66-14.53-.99-21.78,9.52-.28,19.02-.73,28.53-1.18.43,9.61.88,19.24,1.31,28.86l-.21.19c-9.7.41-19.4.91-29.12,1.2-.11-2.4-.22-4.86-.33-7.26h0l.81-.03Z"/>
    <path class="st5" d="M501.87,212.46c-.33-7.25-.66-14.53-.99-21.78,7.63-.35,15.25-.72,22.88-1.18.44,9.67.88,19.36,1.32,29.03-7.64.5-15.28.82-22.92,1.21-.11-2.4-.22-4.86-.33-7.26h0l.04-.02Z"/>
    <path class="st5" d="M554.07,214.72c.04.75.1,1.67.14,2.42-9.69.59-19.39,1.19-29.08,1.8-.44-9.68-.88-19.36-1.32-29.04,9.67-.61,19.35-1.17,29.02-1.79.51,8.87,1.02,17.75,1.54,26.62h-.3Z"/>
    <path class="st5" d="M527.78,245.35c.04.75.08,1.67.11,2.42-8.76.58-17.53.98-26.29,1.41-.33-7.19-.65-14.41-.98-21.6.57-.03,1.21-.04,1.78-.09l.22-.19c-.09-2.4-.24-4.86-.32-7.26,7.64-.34,15.27-.73,22.91-1.2.22,4.83.44,9.68.66,14.51.42-.02.91-.05,1.33-.08.18,4.02.37,8.08.55,12.1h0l.03-.02Z"/>
    <path class="st5" d="M502.46,270.9c-.33-7.25-.66-14.53-.99-21.78,8.76-.38,17.52-.85,26.29-1.39.44,9.67.88,19.36,1.32,29.03-8.75.59-17.49.96-26.24,1.38-.11-2.4-.22-4.86-.33-7.26l-.05.02Z"/>
    <path class="st5" d="M521.63,360.16c.07,1.59.15,3.25.22,4.84-6.41.33-12.82.57-19.23.9-.33-7.2-.65-14.41-.98-21.6.55-.02,1.17-.04,1.72-.08l.22-.19c-.09-2.4-.24-4.86-.32-7.26,5.25-.23,10.51-.47,15.76-.71.22,4.83.44,9.68.66,14.51.46-.01,1.02-.05,1.47-.08.15,3.21.3,6.47.44,9.68h.04Z"/>
    <path class="st5" d="M503.95,395.07c-.44-9.68-.88-19.37-1.32-29.04,6.41-.29,12.82-.58,19.23-.89.66,14.51,1.32,29.04,1.98,43.55-7.06.4-14.12.7-21.17,1.04-.1-2.34-.22-4.74-.32-7.08.58-.02,1.22-.03,1.8-.08l.11-.19c-.09-2.4-.24-4.86-.32-7.26h0v-.05Z"/>
    <path class="st5" d="M518.8,331.06c.07,1.59.15,3.25.22,4.84-5.26.22-10.52.46-15.77.71-.44-9.68-.88-19.36-1.32-29.04,5.25-.24,10.51-.45,15.75-.72.37,8.06.74,16.14,1.1,24.2h.02Z"/>
    <path class="st5" d="M501.98,305.03c-.29-6.39-.58-12.79-.87-19.18.6-.02,1.25-.05,1.85-.09.21-2.4-.23-5.01-.22-7.45,3.96-.18,7.92-.34,11.87-.56.22,4.83.44,9.69.66,14.52.47,0,.99-.05,1.46-.05.22,4.83.44,9.68.66,14.51-5.25.24-10.5.46-15.75.72-.03-.75-.07-1.67-.11-2.42h.45Z"/>
    <path class="st5" d="M82.17,228.49c-.93-.04-1.9-.05-2.83-.11.44-9.68.88-19.36,1.32-29.04,14.55.47,29.1.95,43.65,1.44.13-4.83.3-9.69.41-14.52,4.84.11,9.69.3,14.53.46-.41,14.52-.83,29.04-1.26,43.56-18.48-.59-36.97-1.18-55.45-1.79h0s-.37,0-.37,0Z"/>
    <path class="st5" d="M41.18,226.72c-1.87-.07-3.74-.2-5.61-.27.44-9.68.88-19.38,1.32-29.06,14.55.66,29.09,1.49,43.65,1.98-.44,9.68-.88,19.36-1.32,29.04-12.69-.47-25.35-1.15-38.03-1.73h0v.04Z"/>
    <path class="st5" d="M424.82,103.39c-8.78.28-17.55.58-26.33.86-.13-4.83-.3-9.69-.41-14.52,9.59-.29,19.18-.63,28.77-.93.14,4.83.27,9.68.42,14.51-.81.02-1.65.05-2.45.08Z"/>
    <path class="st5" d="M398.61,118.72c-14.36.27-28.72.57-43.08.69-.15-9.68-.31-19.36-.48-29.04,14.39-.14,28.78-.45,43.17-.7.28,9.67.55,19.36.84,29.03l-.45.02Z"/>
    <path class="st5" d="M180.15,172.94c-4.65-.07-9.31-.22-13.96-.28.08-3.27.18-6.57.24-9.84,4.35.09,8.7.18,13.05.24.08-4.83.2-9.69.29-14.52,9.87.16,19.74.33,29.61.27.03-4.83.16-9.69.22-14.52h28.93c.02-4.83.04-9.69.06-14.52h28.72v-14.52h14.44v58.08h.81v9.83c-34.53-.09-69.06.27-103.58-.37h0l1.17.15Z"/>
    <path class="st5" d="M271.38,431.77c0-8.08-.02-16.19.01-24.27h28.73c0,9.68.03,19.36.02,29.04-9.61,0-19.24.02-28.85.01v-4.85h0l.09.07Z"/>
  </g>
  <g id="Highways">
    <path class="st3" d="M291.71,457.17c1.14-.1,2.06-1.25,3.27-1.17,1.4-.14,2.92.33,4.19-.4,2.69-1.29,7.92-4.88,8.12-7.97.78-2.13,4.01-1.45,3.75-4.56,2.16-2.94,0-3.25.47-5.65,2.15-1.95,3.33-4.56,4.36-7.17,1.07-1.97,3.26-2.67,4.73-4.29h0c1.52-1.12,3.27-1.64,3.6-3.73,1.78-2.19,3.63-4.7,5.95-6.44,3.29-1.02,8.38-1.04,8.32-5.66.15-.67-.22-1.21-.59-1.73-.66-1.74.02-3.81-.14-5.67-.13-1.3-.07-3.4,1.72-2.14,2.46.08,4.71.32,5.83-2.39h0c3.69-4.5,2.96-7.96,2.96-13.27.22-1.04.65-1.92,1.65-2.33.76-1.12,1.69-2.18,2.8-2.96.29-.18,1.61-.11,1.32-.76-.15-.12-.52-.19-.38-.45.79-.56,1.26.28,1.92.57,1.2.19,3.04.39,3.19-1.23.57-.74,1.44-1.43,2.25-1.87.54-.96.72-2.29,2.16-2.25,2.47-1.08,6.33,1.32,7.69-2.02.11-1.34,5.7-2.94,6.61-2.36.1.56-.11,1.56.81,1.3.64-.4,1.34-.51,2.02-.83.19-.45.5-.57,1-.55,2.66-.88,4.94-3.07,7.57-4.07,1.08.29,1.48-.29,2.27-.76.45-.54,1.24-.16,1.86-.3.47-.26,1-.01,1.46-.27.16-.27.39-.41.71-.45,1.22-.82,2.07-1.87,3.66-1.7.63-.69,1.97-.91,2.18-1.82.19-.32.61-.37.92-.26.5-.04.75-.53,1.21-.62,1.55.25,3.09.27,4.57-.43,2.97-.5,6.09-.39,9.04-1.03.08-.05.17-.09.16-.2.12-.39.69-.34.97-.55,1.22-1.18,3.2-.96,4.68-1.63.59-.25,1.18.1,1.76.13.22-.09.35-.4.63-.34,2.3.3,4.58,1.23,6.86,1.46.81.78,1.64,1.53,2.82,1.67,3.89.02,1.74-2.51,6.31-.09.4.16.76.1,1.14.02.16-.17.22-.56.55-.44.5.44,1.06-.12,1.64.17,2.06.38,3.35-1.56,5.1-2.13,1.48-.4,2.84,1.03,4.3.88,1.64.16,3.29-.05,4.92-.04.96.34,1.79,1.1,2.88.87.63-.04,2.44.24,1.4-.79-.89-.66-1.07-1.89.3-.92.39-.15.8,0,1.19.14.85.12,1.66-.47,2.46.04,3.78.12,7.36-1.09,10.84-2.71,1.17-.23,1.99-1.14,2.99-1.53.63.02,1.35.42,1.88-.06,1.04-1.2,1.6-2.71,2.44-4.03.75-.96,2-1.35,2.64-2.47,3.77-6.24-.81-4.59,6.84-9.77,2.51-2.32,6.29-2.65,8.9-5.07,1.46-2.39,3.92-3.98,4.93-6.7,2.46-2.59,6.91-1.48,10.11-1.18"/>
    <path class="st3" d="M338.02,400.32c-.39-2.43-2.94-1.21-4.46-1.8-2.04-1.69-5.4-.44-7.75-1.64-2.84-2.08-6.18-.73-9.36-.71-.96.25-1.47-.96-2.41-.89-.6.12-1.26.14-1.77.5-1.69.65-3.78-.4-5.56-.11-3.07,3.13-5.68,3.29-8.56-.39-2.33-1.62-.04-4.06-3.11-4.6-1.98-.14-.52-3.86-2.95-2.97-2.39-.28-3.97-2.72-6.06-3.76-.65-.5-1.48.12-2.17-.15-1.66-1.44-3.55-3.05-3.85-5.32-.41-2.88-4.52-3.77-5.55-6.37.5-2.1-.65-3.84-1.69-5.56-.65-2.79-.98-5.56-2.95-7.76-.48-1.69.83-2.73,1.87-3.78,1.1-3.38-1.78-6.62-1.13-10.08,1.81-3.53,1.84-4.57,1.12-8.25.59-.9,2-1.75,1.4-2.99-.69-2.04-.21-4.19.5-6.15-.13-1.48-.2-3.09-.89-4.43-.34-1.06-1.58-2.34-.78-3.43,1.87-2.12.59-7.42.81-10.37-.43-2.48,2.78-4.96,1.36-7.15-1.09-.08-1.61-1.04-2.59-1.48-1.49-.59-2.01-2.28-2.99-3.44-.55-.84-1.79-.58-2.66-.87-2.19-.12-3.97-1.9-5.08-3.64-.32-2.96-2.13-5.53-3.03-8.1.35-2.45,1.05-4.68.32-7.11.29-1.81,1.34-3.61,1.22-5.43-1.16-3.32-1.19-6.88-2.61-10.11.91-4.37.69-8.83-.34-13.15.52-2.53-.64-5.02.14-7.5,1.49-2.4,3.19-4.58,2.88-7.48.18-.84-1.01-1.54-.66-2.37.52-.49.8-1.17.95-1.86-.36-.51-.61-.96-.3-1.6.23-1.19-.39-2.36-.19-3.55.26-.76,1.3-1.15,1.2-2.06-.19-1.76-.87-3.48.06-5.15-.1-1.45-.21-3-.59-4.43-.24-1.31-1.65-2.34-.87-3.71.44-1.33,1.35-2.84,2.53-3.53.98-1.96,2.74-3.07,4.52-4.39,1.59-2.09,3.75-3.44,5.98-4.73,4.19-3.11,7.8-7,12.23-9.79,2.17-1.59,2.47-4.47,3.37-6.68.49-.51,1.16-.68,1.78-.93.48-.39.54-1.22,1.14-1.45.98.25,2.24.07,3.02-.66.82-1.43,2.97-1.4,4.17-2.44.31-1,1.18-1.64,1.79-2.45.71-1.97,1.9-3.68,3.09-5.37.76-2.06,3.24-2.82,3.35-5.19-.14-.64-.01-1.28.35-1.84.12-.43-.1-.93.21-1.3.92-1.41,1.97-2.73,2.62-4.33-.14-.9.06-1.77.09-2.65-.05-.82.08-1.97.85-2.33,2.38-1.82,3.07-5.31,4.93-7.72,1.27-.93,1.38-2.73,2.45-3.8.82-.71,1.78-1.63,1.88-2.79.41-.97,1.66-1.32,2.33-2.09.12-.49.05-1.04.63-1.29,2.5-2.7,3.13-6.58,6.18-9.01,1.65-2.06,4.18-3.44,5.35-5.95.32-.64,1.35-1.06.7-1.76-1.61-1.98,2.7-3.65,2.78-5.99-.23-2.67,2.99-4.1,4.7-5.73,1.95-2.69,4.9-4.27,7.5-6.28,1.61-.82,3.22-1.69,4.49-2.87,2.32-.94,5.39-1.03,6.7-3.48"/>
  </g>
  <g id="Railroad">
    <path class="st4" d="M285.83,465.82c-.59-.51-1.02-1.14-1.23-1.9h0c-.07-.18-.15-.37-.22-.56h0c-.1-.26-.2-.52-.3-.79h0s-.01-.03-.02-.04h0c-1.77-2.97-.48-3.6,1.43-5.87h0c.33-.43,1.58-.1,2.03-.24,1.55-.23,3.02-1.05,4.32-1.94h0c1.11-1.22,2.69-.91,4.19-.96,2.47-.99-.88-4.01,1.8-6.02.5-1.27,1.81-.9,2.63-1.67.68-.99,1.84-1.74,3.02-1.11,2.27.86,1.55-2.74,3.27-3.4,1.9-.33,2.52-2.66,2.91-4.27-.09-.69-.68-1.32-.33-2.03.44-1.09,2.01-1.1,2.69-1.94.57-1.19,1.73-2.13,2.41-3.35.49-.21.45-.6.55-1.04,1.31-1.32,1.9-3.01,2.33-4.74.3-.74,1.29-.62,1.76-1.14.12-.47.28-.93.69-1.24,1.53-.82,2.68-2.13,4.37-2.67,1.13-.59,2.69-.41,3.09-1.88h0c.92-1.71,2.69-.97,4.16-1.34,1.38-.57,2.89-.58,4.19-1.29,1.05.09,2.88-.29,3-1.53-.3-1.36.41-2.66.49-4-.25-.95-.87-1.77-.45-2.79.36-2.14,1.7-5.12-1.56-5.34h0c-.73-.31-1.39-.34-2.1-.02-.67-.14-1.2-.6-1.96-.39-1.16.03.84-2.47-.76-2.43-2.37,1.65-2.12.11-4,.63-.45.12-.33-.67-.77-.68-.73-.27-1.25-.79-2.07-.33-.45.16-.6-.23-.62-.6-.3-1.56-2.63-.82-3.78-1.29-2.85.77-5.58,1.26-8.41.32-3.8-.05-7.67-1.17-11.38-1.03-7.38-1.2-2.1-2.97-5.01-4.29-3.98-.91-6.4-4.47-9.99-6.11-1.06-.25-2.26,0-3-1-2.26-1.54-3.07-4-3.97-6.35-1.32-.88-1.95-1.66-2.21-3.29-.04-.19-.16-.38-.36-.42-.66-.13-.59-1.04-.87-1.53h0c-1.29-3.72-3.04-7.44-3.27-11.37h0c-.11-3.51.45-7.12-1.02-10.41.89-3.54,1.12-7.21,1.54-10.84h0c.45-3.29.74-6.59,1.09-9.9h0c.12-6.35-3.53-12.21-2.5-18.62.64-2.16.89-4.33-.76-6.07-.41-1.05-.98-2.25.01-3.15.47-.92.36-2.24.57-3.25-.35-6.59-2.28-13.29-2.34-20.09h0c-.15-1.76-.27-3.34.24-5.05h0c.81-1.7-.8-2.35-1.43-3.63.53-7.69-1.2-15.71,1.18-23.02h0c.22-.84,1.14-1.38,1.08-2.29h0c.37-1.64-.41-3.09-.92-4.6h0c-1.31-3.13,1.33-3.91,1.24-6.84h0c.32-1.63,2.07-1.97,2.93-3.28,1.32-1.23.85-3.15,1.85-4.6h0c.2-1.07,1.17-1.7,1.12-2.88.11-.56.81-.69,1.28-.78.99-.32,1.74-1.07,2.14-2.02h0c.54-.96,1.07-1.91,1.61-2.87h0c.1-.19.21-.37.31-.56h0c.08-.14.15-.27.23-.41h0c.34-.64.6-1.35,1.45-1.12,1.12-.47,2.49-.81,3.23-1.83h0c.44-.99,1.58-1.22,2.04-2.19h0c.03-.9.69-1.34,1.36-1.78,1.06-.89,1.42-2.57,2.51-3.24,1.28-.15,2.39-1.47,3.85-1.57.99-.48,1.16-1.83,2.25-2.34,1.36-1.19,2.58-3.35,2.68-5.09-.21-.71-.46-1.48-.2-2.21.52-1.29,2.36-1.91,2.05-3.49,1.18-1.04.68-3.12,2.09-4.2h0c.21-.23.32-.54.25-.85h0c.02-.66-1.3-.32-.93-.99.95-1.51,1.82-3.17,3.12-4.53.55-.61.57-1.62,1.27-2.18.37-.93.89-2.78-.03-3.43-.82-.41-.66-1.93-1.65-2.2-.67-.38-1.04-1.45-1.88-1.38-.47-.23-1.13-.16-1.39-.68-.18-.17-.15-.38-.02-.57.11-.57-.88-.3-.85-.81.13-.3.52-.56.13-.87-.23-.55.18-1.18.25-1.74h0c.28-.42.25-.89.29-1.37h0c.29-1.19.76-2.33,1.12-3.51h0c.07-.22.15-.45.22-.67.21-.74.54-1.43.74-2.17h0c-.05-1.45,1.03-2.85,1.01-4.12-.41-.62-.81-1.2-.33-1.91h0c.33-.82,1.06-1.36,1.5-2.08.18-.51.42-1.08.88-1.42.61.02,1.09.06,1.36-.62.59-1.02-1.38-.09-.83-1,2.22-3.1,2.77-7.78,5.84-9.96h0c.85-.43,1.35-1.08,1.67-1.98,3.19-8.34,12.63-12.53,17.22-20.08,2.36-6.83,7.91-12.47,13.06-17.32,1.76-.99,2.25-2.28,3.13-3.85,1.87-1.59,4.08-2.46,6.18-3.73h0c.15-.07.29-.14.44-.21,8.38-4.65-2.86-6.2,7.92-10.31"/>
    <path class="st4" d="M339.55,401.24c.1-.3.45-.65.79-.53,3.88,1.4,5.26-3.3,7.12-5.86h0c.34-.52,1.19-1.55,1.34-3.28"/>
  </g>
  <g>
    <g class="st1"> <text class="st2" transform="translate(261.43 222.45)"><tspan x="0" y="0">CY</tspan></text> <text class="st0" transform="translate(261.43 222.45)"><tspan x="0" y="0">CY</tspan></text> </g>
    <g class="st1"> <text class="st2" transform="translate(533.56 237.28)"><tspan x="0" y="0">TY</tspan></text> <text class="st0" transform="translate(533.56 237.28)"><tspan x="0" y="0">TY</tspan></text> </g>
    <g class="st1"> <text class="st2" transform="translate(261.18 251.71)"><tspan x="0" y="0">CH</tspan></text> <text class="st0" transform="translate(261.18 251.71)"><tspan x="0" y="0">CH</tspan></text> </g>
    <g class="st1"> <text class="st2" transform="translate(536.49 266.46)"><tspan x="0" y="0">LL</tspan></text> <text class="st0" transform="translate(536.49 266.46)"><tspan x="0" y="0">LL</tspan></text> </g>
    <g class="st1"> <text class="st2" transform="translate(146.76 337.81)"><tspan x="0" y="0">SL</tspan></text> <text class="st0" transform="translate(146.76 337.81)"><tspan x="0" y="0">SL</tspan></text> </g>
    <g class="st1"> <text class="st2" transform="translate(473.2 341.72)"><tspan x="0" y="0">SM</tspan></text> <text class="st0" transform="translate(473.2 341.72)"><tspan x="0" y="0">SM</tspan></text> </g>
    <g class="st1"> <text class="st2" transform="translate(175.26 338.43)"><tspan x="0" y="0">SK</tspan></text> <text class="st0" transform="translate(175.26 338.43)"><tspan x="0" y="0">SK</tspan></text> </g>
    <g class="st1"> <text class="st2" transform="translate(204.75 338.88)"><tspan x="0" y="0">BL</tspan></text> <text class="st0" transform="translate(204.75 338.88)"><tspan x="0" y="0">BL</tspan></text> </g>
    <g class="st1"> <text class="st2" transform="translate(392.64 367.02)"><tspan x="0" y="0">CN</tspan></text> <text class="st0" transform="translate(392.64 367.02)"><tspan x="0" y="0">CN</tspan></text> </g>
    <g class="st1"> <text class="st2" transform="translate(421.9 366.25)"><tspan x="0" y="0">AR</tspan></text> <text class="st0" transform="translate(421.9 366.25)"><tspan x="0" y="0">AR</tspan></text> </g>
    <g class="st1"> <text class="st2" transform="translate(449.39 365.32)"><tspan x="0" y="0">MG</tspan></text> <text class="st0" transform="translate(449.39 365.32)"><tspan x="0" y="0">MG</tspan></text> </g>
    <g class="st1"> <text class="st2" transform="translate(506.1 104.67)"><tspan x="0" y="0">SG</tspan></text> <text class="st0" transform="translate(506.1 104.67)"><tspan x="0" y="0">SG</tspan></text> </g>
    <g class="st1"> <text class="st2" transform="translate(447.24 107.16)"><tspan x="0" y="0">DH</tspan></text> <text class="st0" transform="translate(447.24 107.16)"><tspan x="0" y="0">DH</tspan></text> </g>
    <g class="st1"> <text class="st2" transform="translate(204.15 309.69)"><tspan x="0" y="0">SH</tspan></text> <text class="st0" transform="translate(204.15 309.69)"><tspan x="0" y="0">SH</tspan></text> </g>
    <g class="st1"> <text class="st2" transform="translate(261.34 193.32)"><tspan x="0" y="0">BY</tspan></text> <text class="st0" transform="translate(261.34 193.32)"><tspan x="0" y="0">BY</tspan></text> </g>
    <g class="st1"> <text class="st2" transform="translate(217.74 207.64)"><tspan x="0" y="0">TK</tspan></text> <text class="st0" transform="translate(217.74 207.64)"><tspan x="0" y="0">TK</tspan></text> </g>
    <g class="st1"> <text class="st2" transform="translate(332.91 331.6)"><tspan x="0" y="0">WV</tspan></text> <text class="st0" transform="translate(332.91 331.6)"><tspan x="0" y="0">WV</tspan></text> </g>
    <g class="st1"> <text class="st2" transform="translate(371.18 330.99)"><tspan x="0" y="0">KR</tspan></text> <text class="st0" transform="translate(371.18 330.99)"><tspan x="0" y="0">KR</tspan></text> </g>
    <g class="st1"> <text class="st2" transform="translate(414.86 329.94)"><tspan x="0" y="0">BC</tspan></text> <text class="st0" transform="translate(414.86 329.94)"><tspan x="0" y="0">BC</tspan></text> </g>
    <g class="st1"> <text class="st2" transform="translate(172.84 384.14)"><tspan x="0" y="0">TL</tspan></text> <text class="st0" transform="translate(172.84 384.14)"><tspan x="0" y="0">TL</tspan></text> </g>
    <g class="st1"> <text class="st2" transform="translate(186.67 440.18)"><tspan x="0" y="0">BE</tspan></text> <text class="st0" transform="translate(186.67 440.18)"><tspan x="0" y="0">BE</tspan></text> </g>
    <g class="st1"> <text class="st2" transform="translate(389.4 401.27)"><tspan x="0" y="0">FC</tspan></text> <text class="st0" transform="translate(389.4 401.27)"><tspan x="0" y="0">FC</tspan></text> </g>
    <g class="st1"> <text class="st2" transform="translate(428.33 402.44)"><tspan x="0" y="0">MN</tspan></text> <text class="st0" transform="translate(428.33 402.44)"><tspan x="0" y="0">MN</tspan></text> </g>
    <g class="st1"> <text class="st2" transform="translate(470.25 400.89)"><tspan x="0" y="0">MW</tspan></text> <text class="st0" transform="translate(470.25 400.89)"><tspan x="0" y="0">MW</tspan></text> </g>
    <g class="st1"> <text class="st2" transform="translate(102.39 387.69)"><tspan x="0" y="0">TM</tspan></text> <text class="st0" transform="translate(102.39 387.69)"><tspan x="0" y="0">TM</tspan></text> </g>
    <g class="st1"> <text class="st2" transform="translate(45.21 385.53)"><tspan x="0" y="0">TG</tspan></text> <text class="st0" transform="translate(45.21 385.53)"><tspan x="0" y="0">TG</tspan></text> </g>
    <g class="st1"> <text class="st2" transform="translate(174.93 309.24)"><tspan x="0" y="0">YO</tspan></text> <text class="st0" transform="translate(174.93 309.24)"><tspan x="0" y="0">YO</tspan></text> </g>
    <g class="st1"> <text class="st2" transform="translate(146.9 308.63)"><tspan x="0" y="0">YA</tspan></text> <text class="st0" transform="translate(146.9 308.63)"><tspan x="0" y="0">YA</tspan></text> </g>
    <g class="st1"> <text class="st2" transform="translate(101.8 321.97)"><tspan x="0" y="0">MP</tspan></text> <text class="st0" transform="translate(101.8 321.97)"><tspan x="0" y="0">MP</tspan></text> </g>
    <g class="st1"> <text class="st2" transform="translate(51.2 320.11)"><tspan x="0" y="0">HR</tspan></text> <text class="st0" transform="translate(51.2 320.11)"><tspan x="0" y="0">HR</tspan></text> </g>
    <g class="st1"> <text class="st2" transform="translate(160.76 265.11)"><tspan x="0" y="0">CL</tspan></text> <text class="st0" transform="translate(160.76 265.11)"><tspan x="0" y="0">CL</tspan></text> </g>
    <g class="st1"> <text class="st2" transform="translate(101.6 263.53)"><tspan x="0" y="0">ML</tspan></text> <text class="st0" transform="translate(101.6 263.53)"><tspan x="0" y="0">ML</tspan></text> </g>
    <g class="st1"> <text class="st2" transform="translate(50.23 261.63)"><tspan x="0" y="0">KM</tspan></text> <text class="st0" transform="translate(50.23 261.63)"><tspan x="0" y="0">KM</tspan></text> </g>
    <g class="st1"> <text class="st2" transform="translate(345.59 265.69)"><tspan x="0" y="0">WM</tspan></text> <text class="st0" transform="translate(345.59 265.69)"><tspan x="0" y="0">WM</tspan></text> </g>
    <g class="st1"> <text class="st2" transform="translate(350.52 294.85)"><tspan x="0" y="0">IC</tspan></text> <text class="st0" transform="translate(350.52 294.85)"><tspan x="0" y="0">IC</tspan></text> </g>
    <g class="st1"> <text class="st2" transform="translate(392.36 279.34)"><tspan x="0" y="0">AC</tspan></text> <text class="st0" transform="translate(392.36 279.34)"><tspan x="0" y="0">AC</tspan></text> </g>
    <g class="st1"> <text class="st2" transform="translate(444.32 297.88)"><tspan x="0" y="0">OR</tspan></text> <text class="st0" transform="translate(444.32 297.88)"><tspan x="0" y="0">OR</tspan></text> </g>
    <g class="st1"> <text class="st2" transform="translate(290.03 237.05)"><tspan x="0" y="0">CU</tspan></text> <text class="st0" transform="translate(290.03 237.05)"><tspan x="0" y="0">CU</tspan></text> </g>
    <g class="st1"> <text class="st2" transform="translate(288.95 207.88)"><tspan x="0" y="0">GO</tspan></text> <text class="st0" transform="translate(288.95 207.88)"><tspan x="0" y="0">GO</tspan></text> </g>
    <g class="st1"> <text class="st2" transform="translate(289.85 181.02)"><tspan x="0" y="0">CV</tspan></text> <text class="st0" transform="translate(289.85 181.02)"><tspan x="0" y="0">CV</tspan></text> </g>
    <g class="st1"> <text class="st2" transform="translate(334.08 222.03)"><tspan x="0" y="0">PC</tspan></text> <text class="st0" transform="translate(334.08 222.03)"><tspan x="0" y="0">PC</tspan></text> </g>
    <g class="st1"> <text class="st2" transform="translate(392.98 220.94)"><tspan x="0" y="0">FL</tspan></text> <text class="st0" transform="translate(392.98 220.94)"><tspan x="0" y="0">FL</tspan></text> </g>
    <g class="st1"> <text class="st2" transform="translate(442.95 256.03)"><tspan x="0" y="0">BK</tspan></text> <text class="st0" transform="translate(442.95 256.03)"><tspan x="0" y="0">BK</tspan></text> </g>
    <g class="st1"> <text class="st2" transform="translate(442.97 212.21)"><tspan x="0" y="0">CE</tspan></text> <text class="st0" transform="translate(442.97 212.21)"><tspan x="0" y="0">CE</tspan></text> </g>
    <g class="st1"> <text class="st2" transform="translate(325.31 173.39)"><tspan x="0" y="0">DC</tspan></text> <text class="st0" transform="translate(325.31 173.39)"><tspan x="0" y="0">DC</tspan></text> </g>
    <g class="st1"> <text class="st2" transform="translate(159.51 206.7)"><tspan x="0" y="0">CC</tspan></text> <text class="st0" transform="translate(159.51 206.7)"><tspan x="0" y="0">CC</tspan></text> </g>
    <g class="st1"> <text class="st2" transform="translate(347.05 139.04)"><tspan x="0" y="0">CR</tspan></text> <text class="st0" transform="translate(347.05 139.04)"><tspan x="0" y="0">CR</tspan></text> </g>
    <g class="st1"> <text class="st2" transform="translate(377.46 138.49)"><tspan x="0" y="0">JR</tspan></text> <text class="st0" transform="translate(377.46 138.49)"><tspan x="0" y="0">JR</tspan></text> </g>
    <g class="st1"> <text class="st2" transform="translate(369.69 172.69)"><tspan x="0" y="0">TC</tspan></text> <text class="st0" transform="translate(369.69 172.69)"><tspan x="0" y="0">TC</tspan></text> </g>
    <g class="st1"> <text class="st2" transform="translate(405.09 123.18)"><tspan x="0" y="0">BR</tspan></text> <text class="st0" transform="translate(405.09 123.18)"><tspan x="0" y="0">BR</tspan></text> </g>
    <g class="st1"> <text class="st2" transform="translate(404.83 152.36)"><tspan x="0" y="0">CM</tspan></text> <text class="st0" transform="translate(404.83 152.36)"><tspan x="0" y="0">CM</tspan></text> </g>
    <g class="st1"> <text class="st2" transform="translate(404.28 179.18)"><tspan x="0" y="0">DM</tspan></text> <text class="st0" transform="translate(404.28 179.18)"><tspan x="0" y="0">DM</tspan></text> </g>
    <g class="st1"> <text class="st2" transform="translate(478.63 210.78)"><tspan x="0" y="0">OP</tspan></text> <text class="st0" transform="translate(478.63 210.78)"><tspan x="0" y="0">OP</tspan></text> </g>
    <g class="st1"> <text class="st2" transform="translate(478.97 247.33)"><tspan x="0" y="0">SC</tspan></text> <text class="st0" transform="translate(478.97 247.33)"><tspan x="0" y="0">SC</tspan></text> </g>
    <g class="st1"> <text class="st2" transform="translate(477.98 276.46)"><tspan x="0" y="0">WK</tspan></text> <text class="st0" transform="translate(477.98 276.46)"><tspan x="0" y="0">WK</tspan></text> </g>
    <g class="st1"> <text class="st2" transform="translate(479.49 305.78)"><tspan x="0" y="0">LN</tspan></text> <text class="st0" transform="translate(479.49 305.78)"><tspan x="0" y="0">LN</tspan></text> </g>
    <g class="st1"> <text class="st2" transform="translate(504.94 209.49)"><tspan x="0" y="0">TR</tspan></text> <text class="st0" transform="translate(504.94 209.49)"><tspan x="0" y="0">TR</tspan></text> </g>
    <g class="st1"> <text class="st2" transform="translate(529.21 208.19)"><tspan x="0" y="0">WP</tspan></text> <text class="st0" transform="translate(529.21 208.19)"><tspan x="0" y="0">WP</tspan></text> </g>
    <g class="st1"> <text class="st2" transform="translate(507.3 239.04)"><tspan x="0" y="0">LY</tspan></text> <text class="st0" transform="translate(507.3 239.04)"><tspan x="0" y="0">LY</tspan></text> </g>
    <g class="st1"> <text class="st2" transform="translate(507.61 267.85)"><tspan x="0" y="0">GL</tspan></text> <text class="st0" transform="translate(507.61 267.85)"><tspan x="0" y="0">GL</tspan></text> </g>
    <g class="st1"> <text class="st2" transform="translate(502.5 356.25)"><tspan x="0" y="0">BM</tspan></text> <text class="st0" transform="translate(502.5 356.25)"><tspan x="0" y="0">BM</tspan></text> </g>
    <g class="st1"> <text class="st2" transform="translate(503.83 392.5)"><tspan x="0" y="0">RM</tspan></text> <text class="st0" transform="translate(503.83 392.5)"><tspan x="0" y="0">RM</tspan></text> </g>
    <g class="st1"> <text class="st2" transform="translate(500.68 326.55)"><tspan x="0" y="0">OM</tspan></text> <text class="st0" transform="translate(500.68 326.55)"><tspan x="0" y="0">OM</tspan></text> </g>
    <g class="st1"> <text class="st2" transform="translate(501.41 298.02)"><tspan x="0" y="0">SV</tspan></text> <text class="st0" transform="translate(501.41 298.02)"><tspan x="0" y="0">SV</tspan></text> </g>
    <g class="st1"> <text class="st2" transform="translate(450.29 163.05)"><tspan x="0" y="0">SS</tspan></text> <text class="st0" transform="translate(450.29 163.05)"><tspan x="0" y="0">SS</tspan></text> </g>
    <g class="st1"> <text class="st2" transform="translate(509.17 164.26)"><tspan x="0" y="0">MR</tspan></text> <text class="st0" transform="translate(509.17 164.26)"><tspan x="0" y="0">MR</tspan></text> </g>
    <g class="st1"> <text class="st2" transform="translate(102.51 217.3)"><tspan x="0" y="0">DG</tspan></text> <text class="st0" transform="translate(102.51 217.3)"><tspan x="0" y="0">DG</tspan></text> </g>
    <g class="st1"> <text class="st2" transform="translate(51.4 217.7)"><tspan x="0" y="0">LT</tspan></text> <text class="st0" transform="translate(51.4 217.7)"><tspan x="0" y="0">LT</tspan></text> </g>
    <g class="st1"> <text class="st2" transform="translate(405.2 101.28)"><tspan x="0" y="0">PP</tspan></text> <text class="st0" transform="translate(405.2 101.28)"><tspan x="0" y="0">PP</tspan></text> </g>
    <g class="st1"> <text class="st2" transform="translate(368.59 109.43)"><tspan x="0" y="0">CT</tspan></text> <text class="st0" transform="translate(368.59 109.43)"><tspan x="0" y="0">CT</tspan></text> </g>
    <g class="st1"> <text class="st2" transform="translate(289.72 120.66)"><tspan x="0" y="0">LM</tspan></text> <text class="st0" transform="translate(289.72 120.66)"><tspan x="0" y="0">LM</tspan></text> </g>
    <g class="st1"> <text class="st2" transform="translate(229.51 154.76)"><tspan x="0" y="0">MD</tspan></text> <text class="st0" transform="translate(229.51 154.76)"><tspan x="0" y="0">MD</tspan></text> </g>
    <g class="st1"> <text class="st2" transform="translate(287.99 154.22)"><tspan x="0" y="0">HU</tspan></text> <text class="st0" transform="translate(287.99 154.22)"><tspan x="0" y="0">HU</tspan></text> </g>
    <g class="st1"> <text class="st2" transform="translate(317.28 139.42)"><tspan x="0" y="0">CO</tspan></text> <text class="st0" transform="translate(317.28 139.42)"><tspan x="0" y="0">CO</tspan></text> </g>
    <g class="st1"> <text class="st2" transform="translate(325.36 110.12)"><tspan x="0" y="0">BP</tspan></text> <text class="st0" transform="translate(325.36 110.12)"><tspan x="0" y="0">BP</tspan></text> </g>
    <g class="st1"> <text class="st2" transform="translate(233.01 346.46)"><tspan x="0" y="0">KO</tspan></text> <text class="st0" transform="translate(233.01 346.46)"><tspan x="0" y="0">KO</tspan></text> </g>
    <g class="st1"> <text class="st2" transform="translate(233.34 382.97)"><tspan x="0" y="0">DK</tspan></text> <text class="st0" transform="translate(233.34 382.97)"><tspan x="0" y="0">DK</tspan></text> </g>
    <g class="st1"> <text class="st2" transform="translate(336.26 368.08)"><tspan x="0" y="0">IN</tspan></text> <text class="st0" transform="translate(336.26 368.08)"><tspan x="0" y="0">IN</tspan></text> </g>
    <g class="st1"> <text class="st2" transform="translate(364.06 367.63)"><tspan x="0" y="0">SU</tspan></text> <text class="st0" transform="translate(364.06 367.63)"><tspan x="0" y="0">SU</tspan></text> </g>
    <g class="st1"> <text class="st2" transform="translate(313.74 368.6)"><tspan x="0" y="0">GS</tspan></text> <text class="st0" transform="translate(313.74 368.6)"><tspan x="0" y="0">GS</tspan></text> </g>
    <g class="st1"> <text class="st2" transform="translate(319.14 397.45)"><tspan x="0" y="0">WA</tspan></text> <text class="st0" transform="translate(319.14 397.45)"><tspan x="0" y="0">WA</tspan></text> </g>
    <g class="st1"> <text class="st2" transform="translate(350.6 397.08)"><tspan x="0" y="0">PA</tspan></text> <text class="st0" transform="translate(350.6 397.08)"><tspan x="0" y="0">PA</tspan></text> </g>
    <g class="st1"> <text class="st2" transform="translate(335.23 419.16)"><tspan x="0" y="0">GC</tspan></text> <text class="st0" transform="translate(335.23 419.16)"><tspan x="0" y="0">GC</tspan></text> </g>
    <g class="st1"> <text class="st2" transform="translate(364.23 418.71)"><tspan x="0" y="0">KG</tspan></text> <text class="st0" transform="translate(364.23 418.71)"><tspan x="0" y="0">KG</tspan></text> </g>
    <g class="st1"> <text class="st2" transform="translate(231.91 439.52)"><tspan x="0" y="0">FH</tspan></text> <text class="st0" transform="translate(231.91 439.52)"><tspan x="0" y="0">FH</tspan></text> </g>
    <g class="st1"> <text class="st2" transform="translate(277.11 456.07)"><tspan x="0" y="0">PM</tspan></text> <text class="st0" transform="translate(277.11 456.07)"><tspan x="0" y="0">PM</tspan></text> </g>
    <g class="st1"> <text class="st2" transform="translate(303.66 424.35)"><tspan x="0" y="0">OC</tspan></text> <text class="st0" transform="translate(303.66 424.35)"><tspan x="0" y="0">OC</tspan></text> </g>
    <g class="st1"> <text class="st2" transform="translate(277.49 426.89)"><tspan x="0" y="0">GB</tspan></text> <text class="st0" transform="translate(277.49 426.89)"><tspan x="0" y="0">GB</tspan></text> </g>
    <g class="st1"> <text class="st2" transform="translate(218.47 266.03)"><tspan x="0" y="0">PV</tspan></text> <text class="st0" transform="translate(218.47 266.03)"><tspan x="0" y="0">PV</tspan></text> </g>
    <g class="st1"> <text class="st2" transform="translate(262.33 280.83)"><tspan x="0" y="0">TA</tspan></text> <text class="st0" transform="translate(262.33 280.83)"><tspan x="0" y="0">TA</tspan></text> </g>
    <g class="st1"> <text class="st2" transform="translate(298.65 331.91)"><tspan x="0" y="0">KA</tspan></text> <text class="st0" transform="translate(298.65 331.91)"><tspan x="0" y="0">KA</tspan></text> </g>
    <g class="st1"> <text class="st2" transform="translate(288.46 369.9)"><tspan x="0" y="0">WC</tspan></text> <text class="st0" transform="translate(288.46 369.9)"><tspan x="0" y="0">WC</tspan></text> </g>
    <g class="st1"> <text class="st2" transform="translate(290.67 397.65)"><tspan x="0" y="0">HO</tspan></text> <text class="st0" transform="translate(290.67 397.65)"><tspan x="0" y="0">HO</tspan></text> </g>
    <g class="st1"> <text class="st2" transform="translate(305.48 280.7)"><tspan x="0" y="0">BA</tspan></text> <text class="st0" transform="translate(305.48 280.7)"><tspan x="0" y="0">BA</tspan></text> </g>
    <g class="st1"> <text class="st2" transform="translate(260.41 310.1)"><tspan x="0" y="0">MO</tspan></text> <text class="st0" transform="translate(260.41 310.1)"><tspan x="0" y="0">MO</tspan></text> </g>
    <g class="st1"> <text class="st2" transform="translate(232.17 309.98)"><tspan x="0" y="0">MC</tspan></text> <text class="st0" transform="translate(232.17 309.98)"><tspan x="0" y="0">MC</tspan></text> </g>
    <g class="st1"> <text class="st2" transform="translate(262.42 339.22)"><tspan x="0" y="0">CA</tspan></text> <text class="st0" transform="translate(262.42 339.22)"><tspan x="0" y="0">CA</tspan></text> </g>
    <g class="st1"> <text class="st2" transform="translate(262.33 368.49)"><tspan x="0" y="0">WI</tspan></text> <text class="st0" transform="translate(262.33 368.49)"><tspan x="0" y="0">WI</tspan></text> </g>
    <g class="st1"> <text class="st2" transform="translate(263.95 397.62)"><tspan x="0" y="0">LS</tspan></text> <text class="st0" transform="translate(263.95 397.62)"><tspan x="0" y="0">LS</tspan></text> </g>
  </g>
</svg>