<?xml version="1.0" encoding="UTF-8"?>
<svg id="Layer_1" data-name="Layer 1" xmlns="http://www.w3.org/2000/svg" width="792" height="516.9" viewBox="0 0 792 516.9">
  <defs>
    <style>
      .cls-1 {
        fill: #face0b;
      }
    </style>
  </defs>
  <g>
    <path class="cls-1" d="M.9,4h101.6l41.1,154.68L185.26,4h101.03v254h-68.49V74.2l-49.66,183.79h-49.09l-49.66-183.79v183.79H.9V4Z"/>
    <path class="cls-1" d="M324.53,180.37h69.64c4,17.69,19.41,28.54,47.37,28.54,16.55,0,36.53-5.14,36.53-22.26,0-14.84-14.27-18.83-30.82-21.69l-43.38-7.99c-45.66-7.99-71.92-32.53-71.92-75.91C331.95,29.68,378.76,0,439.83,0c66.21,0,103.88,33.1,105.02,79.91h-67.92c-2.28-19.41-15.98-27.4-39.38-27.4-25.11,0-34.25,10.84-34.25,21.12s6.85,18.27,28.54,21.69l37.67,6.28c53.08,8.56,76.48,36.53,76.48,77.06,0,49.66-46.8,81.62-109.02,81.62-51.94,1.14-107.88-25.11-112.44-79.91h0Z"/>
    <path class="cls-1" d="M583.09,4h101.6c70.78,0,101.6,23.97,101.6,66.78,0,23.4-9.7,40.52-41.1,55.94,44.52,13.13,46.8,42.24,46.8,61.64,0,47.37-28.54,69.06-102.17,69.06h-107.31V4h.57ZM694.4,102.74c15.98,0,26.26-9.7,26.26-23.4,0-14.84-12.56-24.54-28.54-24.54h-40.52v47.95h42.81ZM692.69,206.62c19.98,0,30.25-13.13,30.25-26.26,0-14.27-11.42-24.54-28.54-24.54h-42.81v50.8h41.1Z"/>
  </g>
  <rect class="cls-1" y="301.08" width="790.86" height="34.25"/>
  <g>
    <path class="cls-1" d="M52.83,379.57L.9,516.9h38.08l10.96-29.43h41.55l10.96,29.43h37.51l-51.93-137.33h-35.2ZM81.68,455.16h-21.93l10.96-31.16,10.96,31.16Z"/>
    <polygon class="cls-1" points="187.28 378.99 149.77 378.99 149.77 516.9 245.56 516.9 245.56 485.16 187.28 485.16 187.28 378.99"/>
    <path class="cls-1" d="M299.8,379.57l-51.93,137.33h38.08l10.96-29.43h41.55l10.96,29.43h37.51l-51.93-137.33h-35.2ZM328.65,455.16h-21.93l10.96-31.16,10.96,31.16Z"/>
    <path class="cls-1" d="M467.72,431.5l-23.66-4.62c-13.85-2.88-13.85-7.5-13.85-9.81,0-6.35,6.92-10.39,18.47-10.39,19.62,0,20.77,10.39,20.77,13.85l.58,4.62h36.93v-5.19c-.58-21.93-17.89-43.85-57.13-43.85-34.04,0-57.7,17.89-57.7,43.28,0,15,6.92,34.04,39.24,40.39l25.39,5.19c13.85,2.88,15,6.92,15,10.39,0,7.5-10.39,11.54-20.2,11.54-8.08,0-22.51-1.73-25.39-14.43l-1.15-4.04h-37.51l.58,5.77c3.46,29.43,32.89,42.7,61.17,42.7,34.62,0,59.43-17.89,59.43-43.85-.58-15.58-7.5-35.2-40.97-41.54Z"/>
    <polygon class="cls-1" points="648.33 378.99 603.9 378.99 562.35 428.61 562.35 378.99 524.27 378.99 524.27 516.9 562.35 516.9 562.35 477.08 576.78 460.93 610.24 516.9 651.22 516.9 602.74 433.81 648.33 378.99"/>
    <path class="cls-1" d="M739.5,379.57h-35.78l-51.93,137.33h38.08l10.96-29.43h41.55l10.96,29.43h37.51l-51.36-137.33ZM732,455.16h-21.93l10.96-31.16,10.96,31.16Z"/>
  </g>
</svg>