<?xml version="1.0" encoding="utf-8"?>
<!-- Generator: Adobe Illustrator 29.7.1, SVG Export Plug-In . SVG Version: 9.03 Build 0)  -->
<svg version="1.0" id="Layer_1" xmlns="http://www.w3.org/2000/svg" xmlns:xlink="http://www.w3.org/1999/xlink" x="0px" y="0px"
	 viewBox="0 0 500.48 362.65" style="enable-background:new 0 0 500.48 362.65;" xml:space="preserve">
<style type="text/css">
	.st0{fill:#295F99;}
	.st1{enable-background:new    ;}
</style>
<g>
	<path class="st0" d="M0,1.53h65.54l26.53,100.01L118.83,1.53h65.32v163.96h-44.22V46.66l-31.97,118.83H76.2L44.1,46.66v118.83H0
		V1.53z"/>
	<path class="st0" d="M203.18,115.59h44.9c2.49,11.57,12.48,18.37,30.5,18.37c10.55,0,23.58-3.4,23.58-14.29
		c0-9.52-9.07-12.03-19.84-13.94l-28.01-4.99c-29.37-5.21-46.49-20.98-46.49-48.87c0-33.1,30.17-52.37,69.51-52.37
		c42.74,0,67.25,21.33,67.91,51.71h-43.77c-1.36-12.36-10.32-17.69-25.39-17.69c-16.33,0-22,7.03-22,13.61s4.53,11.68,18.37,13.94
		l24.37,3.97c34.24,5.55,49.45,23.58,49.45,49.89c0,31.97-30.16,52.84-70.41,52.84c-33.77,0-69.83-16.8-72.67-52.18l0,0
		L203.18,115.59z"/>
	<path class="st0" d="M365.31,1.53h65.54c45.81,0,65.77,15.42,65.77,43.32c0,15.19-6.35,26.3-26.53,36.29
		c28.68,8.61,30.39,27.44,30.39,39.69c0,30.62-18.37,44.67-65.99,44.67h-69.18V1.53L365.31,1.53z M437.2,65.48
		c10.43,0,17-6.35,17-14.96c0-9.75-8.16-15.87-18.6-15.87h-26.19V65.5h27.78v-0.02L437.2,65.48z M436.06,132.39
		c12.94,0,19.51-8.39,19.51-17c0-9.07-7.26-15.87-18.37-15.87h-27.78v32.88h26.65L436.06,132.39z"/>
</g>
<rect y="191.04" class="st0" width="500.48" height="21.47"/>
<g class="st1">
	<path class="st0" d="M58.88,236.84H34.27l-33.8,94.53h26.88l7.1-19.81h24.46l6.98,19.81h26.78l-33.79-94.52L58.88,236.84z
		 M41.44,287.47l5.14-15.3l5.08,15.3C51.66,287.47,41.44,287.47,41.44,287.47z"/>
	<polygon class="st0" points="121.84,307.82 121.84,236.9 95.45,236.9 95.45,331.42 158.98,331.42 158.98,307.82 	"/>
	<path class="st0" d="M219.5,236.84h-24.61l-33.79,94.52h26.88l7.1-19.81h24.46l6.98,19.81h26.78l-33.79-94.52H219.5z
		 M202.07,287.47l5.14-15.3l5.08,15.3H202.07z"/>
	<path class="st0" d="M299.23,273.08l-14.88-3.2c-7.77-1.61-7.77-3.97-7.77-5.53c0-3.7,3.87-5.91,10.34-5.91
		c9.88,0,11.62,4.39,12.03,8.22l0.43,4.02h25.87l-0.06-4.56c-0.19-15.11-11.95-30.35-37.8-30.35c-22.36,0-37.97,12.45-37.97,30.29
		c0,10.49,4.5,23.92,25.9,28.35l15.97,3.48c8.4,1.95,8.4,4.13,8.4,5.73c0,5.05-7.54,6.38-11.53,6.38c-4.77,0-13.01-1.11-14.65-8.54
		l-0.78-3.53h-26.29l0.51,4.96c2.12,20.48,21.72,29.65,40.2,29.65c22.92,0,38.92-12.6,38.92-30.64c0-10.74-4.67-24.47-26.86-28.83
		L299.23,273.08z"/>
	<polygon class="st0" points="382.06,274.89 411.88,236.84 380.66,236.84 356.16,267.62 356.16,236.84 329.24,236.84 329.24,331.37 
		356.16,331.37 356.16,303.94 363.62,294.94 384.35,331.37 413.42,331.37 	"/>
	<path class="st0" d="M466.69,236.84h-24.62l-33.79,94.52h26.88l7.1-19.81h24.46l6.98,19.81h26.78L466.69,236.84z M449.25,287.47
		l5.13-15.3l5.08,15.3h-10.22H449.25z"/>
</g>
</svg>
